<svg id="Layer_1" data-name="Layer 1" xmlns="http://www.w3.org/2000/svg" width="4.6in" height="3.6in" viewBox="0 0 329 260"><title>Connect</title><circle cx="166.7" cy="130" r="103.3" fill="#23629e"/><circle cx="122.6" cy="108.6" r="14.6" fill="none" stroke="#ddd" stroke-miterlimit="10" stroke-width="3"/><path d="M147.4,132.6c-3.7-7.2-12.8-5-19.5-5s-15.4-.6-23,0-9,8.7-9,14.3" fill="none" stroke="#ddd" stroke-miterlimit="10" stroke-width="3"/><circle cx="205.6" cy="108.6" r="14.6" fill="none" stroke="#ddd" stroke-miterlimit="10" stroke-width="3"/><path d="M232.5,141.9c0-5.9-2-9.9-6-13.9-13-1-27,0-40,0-3,0-4,3-5.9,5.5" fill="none" stroke="#ddd" stroke-miterlimit="10" stroke-width="3"/><circle cx="165" cy="107.8" r="20.2" fill="none" stroke="#fff" stroke-miterlimit="10" stroke-width="3"/><path d="M202.1,153.1c0-10.9-5.4-19.8-12-19.8h-50c-6.6,0-12,8.9-12,19.8" fill="none" stroke="#fff" stroke-miterlimit="10" stroke-width="3"/></svg>