<svg id="Layer_1" data-name="Layer 1" xmlns="http://www.w3.org/2000/svg" width="4.6in" height="3.6in" viewBox="0 0 329 260"><title>Design</title><circle cx="163.1" cy="130" r="103.3" fill="#23629e"/><rect x="131.2" y="94.2" width="71.7" height="2.56" rx="1" ry="1" fill="#fff"/><path d="M137.8,96.7h58.6a0,0,0,0,1,0,0v58.6a9.5,9.5,0,0,1-9.5,9.5H147.3a9.5,9.5,0,0,1-9.5-9.5V96.7A0,0,0,0,1,137.8,96.7Z" fill="none" stroke="#fff" stroke-miterlimit="10" stroke-width="3"/><path d="M121,108.9h16.7a0,0,0,0,1,0,0v36.9a0,0,0,0,1,0,0h-16a4.3,4.3,0,0,1-4.3-4.3V112.5a3.6,3.6,0,0,1,3.6-3.6Z" fill="none" stroke="#fff" stroke-miterlimit="10" stroke-width="3"/><path d="M147.6,96.7c-.7.1-1.5,14.7-1.7,16.2s-.3,4.6,1.3,6.1l5.1-5.5c-.8.7.1,5.9.1,7.2,0,3.4-.1,6.7.2,10.1.1,1,.3,2.3,1.3,2.8s2.4-.2,3.3-1.2,2.9-5.2,3.4-8.1a101.6,101.6,0,0,0,.8-12.3c0,1.1,1,5.8,2.3,6.2a1.5,1.5,0,0,0,1.6-.6,4.1,4.1,0,0,0,.7-1.5c.4-1.6,2.3-19.4.9-19.4Z" fill="#fff"/><circle cx="171.7" cy="140" r="2.6" fill="#fff"/><circle cx="145" cy="146.6" r="0.8" fill="#fff"/><rect x="147.5" y="75.7" width="11.9" height="19.8" fill="none" stroke="#fff" stroke-miterlimit="10"/><rect x="152.9" y="80.3" width="1" height="9.72" rx="0.5" ry="0.5" fill="#fff"/><polyline points="147.5 75.7 153.4 66.2 159.4 75.5" fill="none" stroke="#fff" stroke-miterlimit="10"/><polygon points="153.3 66.8 151.9 69.3 154.9 69.3 153.3 66.8" fill="#fff"/><path d="M192.7,73.7h0a3.9,3.9,0,0,1,3.9,3.9V95.5a0,0,0,0,1,0,0h-7.7a0,0,0,0,1,0,0V77.6A3.9,3.9,0,0,1,192.7,73.7Z" transform="matrix(0.96, 0.29, -0.29, 0.96, 33.52, -53.06)" fill="none" stroke="#fff" stroke-miterlimit="10" stroke-width="2.63"/><line x1="189.7" y1="81.2" x2="196.3" y2="83.4" fill="none" stroke="#fff" stroke-miterlimit="10"/><path d="M197.2,73.8l1.8-3.9c.3-.7-.7-1.3-1.1-.6l-1.8,3.8c-.3.8.8,1.4,1.1.7Z" fill="#fff"/></svg>