<svg xmlns="http://www.w3.org/2000/svg" width="4.6in" height="3.6in" viewBox="0 0 329 260"><circle cx="154.9" cy="116.2" r="103.3" fill="#23629e"/><rect width="78.7" height="37.68" x="108.7" y="116.2" fill="none" stroke="#fff" stroke-miterlimit="10" stroke-width="2" rx="2.3" ry="2.3"/><path fill="none" stroke="#fff" stroke-miterlimit="10" stroke-width="2" d="M118.3 112v3.7m0-3.7a2.5 2.5 0 0 1 2.7-2.2h73.2a2.5 2.5 0 0 1 2.7 2.2v35.5a2.5 2.5 0 0 1-2.7 2.2m0 0H188"/><path fill="#fff" d="M143.3 138.6a8.2 8.2 0 0 0 3.8.9c2.2 0 3.4-.9 3.4-2.2s-.8-2-3.1-2.7-4.3-1.8-4.3-3.7 2.1-3.6 5.3-3.6a8.3 8.3 0 0 1 3.7.7l-.6 1.4a7.2 7.2 0 0 0-3.2-.7c-2.2 0-3.1 1.1-3.1 2s1 1.8 3.3 2.5 4.2 2 4.2 3.9-1.9 3.8-5.8 3.8a11.6 11.6 0 0 1-4.2-.8z"/><rect width=".9" height="17.13" x="147.1" y="125.4" fill="#fff" rx=".4" ry=".4"/><path fill="#fff" d="M166.8 100.4a5.7 5.7 0 0 0 2.4.6c1.4 0 2.3-.6 2.3-1.5s-.6-1.2-2-1.6-2.8-1.2-2.8-2.4 1.3-2.3 3.4-2.3a5.5 5.5 0 0 1 2.3.4l-.4.9a5.6 5.6 0 0 0-2-.4c-1.4 0-2 .7-2 1.3s.7 1.1 2.1 1.6 2.7 1.2 2.7 2.5-1.2 2.4-3.7 2.4a5.9 5.9 0 0 1-2.6-.6z"/><rect width=".6" height="10.93" x="169.2" y="92" fill="#fff" rx=".3" ry=".3"/><path fill="#fff" d="M145 88.1a5.7 5.7 0 0 0 2.4.6c1.4 0 2.2-.6 2.2-1.4s-.5-1.3-2-1.7-2.8-1.2-2.8-2.4 1.4-2.3 3.5-2.3a6.3 6.3 0 0 1 2.3.4l-.4.9a5.6 5.6 0 0 0-2-.4c-1.4 0-2 .7-2 1.3s.7 1.2 2.1 1.6 2.7 1.2 2.7 2.5-1.2 2.4-3.7 2.4a6.8 6.8 0 0 1-2.7-.5z"/><rect width=".6" height="10.93" x="147.4" y="79.7" fill="#fff" rx=".3" ry=".3"/><path fill="none" stroke="#fff" stroke-miterlimit="10" stroke-width="2" d="M116 116.2l-6.8 7.6m0 24.2l7.4 5.8m70.7-7.3l-6.7 7.3m-2.3-37.6l9 5.3M129 109.8l-10.7 4.1m69-4.1l9.6 7.9m0 20l-7.5 12"/><circle cx="169.2" cy="96.8" r="9.2" fill="none" stroke="#fff" stroke-miterlimit="10" stroke-width="2"/><circle cx="148" cy="85.2" r="9.2" fill="none" stroke="#fff" stroke-miterlimit="10" stroke-width="2"/></svg>