<svg id="Layer_1" data-name="Layer 1" xmlns="http://www.w3.org/2000/svg" width="4.6in" height="3.6in" viewBox="0 0 329 260"><title>Earn</title><circle cx="154.9" cy="116.2" r="103.3" fill="#23629e"/><rect x="108.7" y="116.2" width="78.7" height="37.68" rx="2.3" ry="2.3" fill="none" stroke="#fff" stroke-miterlimit="10" stroke-width="2"/><line x1="118.3" y1="112" x2="118.3" y2="115.7" fill="none" stroke="#fff" stroke-miterlimit="10" stroke-width="2"/><path d="M118.3,112a2.5,2.5,0,0,1,2.7-2.2h73.2a2.5,2.5,0,0,1,2.7,2.2v35.5a2.5,2.5,0,0,1-2.7,2.2" fill="none" stroke="#fff" stroke-miterlimit="10" stroke-width="2"/><line x1="194.2" y1="149.7" x2="188" y2="149.7" fill="none" stroke="#fff" stroke-miterlimit="10" stroke-width="2"/><path d="M143.3,138.6a8.2,8.2,0,0,0,3.8.9c2.2,0,3.4-.9,3.4-2.2s-.8-2-3.1-2.7-4.3-1.8-4.3-3.7,2.1-3.6,5.3-3.6a8.3,8.3,0,0,1,3.7.7l-.6,1.4a7.2,7.2,0,0,0-3.2-.7c-2.2,0-3.1,1.1-3.1,2s1,1.8,3.3,2.5,4.2,2,4.2,3.9-1.9,3.8-5.8,3.8a11.6,11.6,0,0,1-4.2-.8Z" fill="#fff"/><rect x="147.1" y="125.4" width="0.9" height="17.13" rx="0.4" ry="0.4" fill="#fff"/><path d="M166.8,100.4a5.7,5.7,0,0,0,2.4.6c1.4,0,2.3-.6,2.3-1.5s-.6-1.2-2-1.6-2.8-1.2-2.8-2.4,1.3-2.3,3.4-2.3a5.5,5.5,0,0,1,2.3.4l-.4.9a5.6,5.6,0,0,0-2-.4c-1.4,0-2,.7-2,1.3s.7,1.1,2.1,1.6,2.7,1.2,2.7,2.5-1.2,2.4-3.7,2.4a5.9,5.9,0,0,1-2.6-.6Z" fill="#fff"/><rect x="169.2" y="92" width="0.6" height="10.93" rx="0.3" ry="0.3" fill="#fff"/><path d="M145,88.1a5.7,5.7,0,0,0,2.4.6c1.4,0,2.2-.6,2.2-1.4s-.5-1.3-2-1.7-2.8-1.2-2.8-2.4,1.4-2.3,3.5-2.3a6.3,6.3,0,0,1,2.3.4l-.4.9a5.6,5.6,0,0,0-2-.4c-1.4,0-2,.7-2,1.3s.7,1.2,2.1,1.6,2.7,1.2,2.7,2.5-1.2,2.4-3.7,2.4a6.8,6.8,0,0,1-2.7-.5Z" fill="#fff"/><rect x="147.4" y="79.7" width="0.6" height="10.93" rx="0.3" ry="0.3" fill="#fff"/><line x1="116" y1="116.2" x2="109.2" y2="123.8" fill="none" stroke="#fff" stroke-miterlimit="10" stroke-width="2"/><line x1="109.2" y1="148" x2="116.6" y2="153.8" fill="none" stroke="#fff" stroke-miterlimit="10" stroke-width="2"/><line x1="187.3" y1="146.5" x2="180.6" y2="153.8" fill="none" stroke="#fff" stroke-miterlimit="10" stroke-width="2"/><line x1="178.3" y1="116.2" x2="187.3" y2="121.5" fill="none" stroke="#fff" stroke-miterlimit="10" stroke-width="2"/><line x1="129" y1="109.8" x2="118.3" y2="113.9" fill="none" stroke="#fff" stroke-miterlimit="10" stroke-width="2"/><path d="M187.3,109.8l9.6,7.9" fill="none" stroke="#fff" stroke-miterlimit="10" stroke-width="2"/><line x1="196.9" y1="137.7" x2="189.4" y2="149.7" fill="none" stroke="#fff" stroke-miterlimit="10" stroke-width="2"/><circle cx="169.2" cy="96.8" r="9.2" fill="none" stroke="#fff" stroke-miterlimit="10" stroke-width="2"/><circle cx="148" cy="85.2" r="9.2" fill="none" stroke="#fff" stroke-miterlimit="10" stroke-width="2"/></svg>
