<svg xmlns="http://www.w3.org/2000/svg"><symbol id="connect" viewBox="0 0 329 260"><circle cx="166.7" cy="130" r="103.3" fill="#23629e"/><circle cx="132.2" cy="123.4" r="24" fill="#fff"/><circle cx="195.7" cy="83.6" r="21.4" fill="#fff"/><circle cx="181.7" cy="179.4" r="18.3" fill="#fff"/><path fill="#fff" d="M137.003 140.17l4.115-4.367 44.86 42.274-4.115 4.367zm3.537-22.383l-2.705-5.356 55.019-27.792 2.705 5.356z"/></symbol><symbol id="earn" viewBox="0 0 329 260"><circle cx="150.4" cy="125.4" r="103.3" fill="#23629e"/><path fill="#fff" d="M130.7 143.6a38.5 38.5 0 0 0 15.9 3.5c9.1 0 14.3-3.8 14.3-9.3s-3.6-8-12.9-10.8c-11.2-3.2-18.1-7.8-18.1-15.5s8.9-14.8 22.2-14.8c7 0 12.1 1.3 15.2 2.7l-2.5 5.7a34.4 34.4 0 0 0-13-2.5c-9.4 0-12.9 4.4-12.9 8.1s4.2 7.6 13.6 10.5c11.6 3.6 17.5 8.1 17.5 16.1s-7.8 15.7-24 15.7c-6.6 0-13.8-1.6-17.5-3.5z"/><rect width="3.7" height="70.97" x="146.7" y="88.8" fill="#fff" rx="1.7" ry="1.7"/><circle cx="150.4" cy="124.3" r="59.7" fill="none" stroke="#fff" stroke-miterlimit="10" stroke-width="8"/></symbol><symbol id="facebook" viewBox="0 0 329 260"><rect width="205.7" height="204.37" x="47.9" y="18.3" fill="#22639f" rx="101.7" ry="101.7"/><path fill="#fff" d="M113.6 121.9h16.7v-5.8c0-13.1 3.6-22.5 10.9-28.4s17.8-8.8 31.3-8.8 24.9 1.2 33.9 3.7l-6.7 20.9a60.5 60.5 0 0 0-9.9-1.7q-4.4-.3-9-.3c-5.9 0-9.7 1.5-11.4 4.6s-2.4 8.4-2.4 15.8h26.2v22H167v81.5h-36.7v-81.5h-16.7z"/></symbol><symbol id="design" viewBox="0 0 329 260"><circle cx="166.1" cy="128.8" r="103.3" fill="#23629e"/><rect width="88.4" height="4.31" x="129.4" y="96.8" fill="#fff" rx="1.5" ry="1.5"/><path fill="none" stroke="#fff" stroke-miterlimit="10" stroke-width="4.12" d="M132.5 101.1H213v80.6a13.1 13.1 0 0 1-13.1 13.1h-54.3a13.1 13.1 0 0 1-13.1-13.1v-80.6zm-23 16.8h23v50.6h-22a5.9 5.9 0 0 1-5.9-5.9v-39.7a5 5 0 0 1 4.9-5z"/><path fill="#fff" d="M146 101.1c-.9.2-2 20.3-2.2 22.3s-.5 6.4 1.6 8.5c2.4-2.5 4.7-5.1 7-7.7-1 1.1.2 8.2.2 9.9.1 4.7 0 9.3.3 13.9.2 1.5.5 3.1 1.7 3.8s3.4-.2 4.6-1.5c2.7-3.1 4-7.2 4.6-11.3a104.7 104.7 0 0 0 1.2-16.8c0 1.6 1.4 8 3.2 8.5a1.9 1.9 0 0 0 2.1-.7 5.5 5.5 0 0 0 1-2.2c.6-2.1 3.2-26.7 1.3-26.7z"/><circle cx="179.1" cy="160.7" r="3.6" fill="#fff"/><path fill="none" stroke="#fff" stroke-miterlimit="10" stroke-width="1.37" d="M145.8 72.3h16.4v27.2h-16.4z"/><rect width="1.3" height="13.36" x="153.4" y="78.6" fill="#fff" rx=".7" ry=".7"/><path fill="none" stroke="#fff" stroke-miterlimit="10" stroke-width="1.37" d="M145.8 72.3l8.2-13 8.2 12.8"/><path fill="#fff" d="M153.9 60.2l-1.9 3.3h4.1l-2.2-3.3z"/><path fill="none" stroke="#fff" stroke-miterlimit="10" stroke-width="3.61" d="M212.317 70.395a5.3 5.3 0 0 1 3.495 6.63l-7.274 23.5-10.126-3.135 7.274-23.5a5.3 5.3 0 0 1 6.63-3.495z"/><path fill="none" stroke="#fff" stroke-miterlimit="10" stroke-width="1.37" d="M203.9 79.9l9.1 3"/><path fill="#fff" d="M213.7 71.1l2.3-5c.5-1-.9-1.8-1.4-.9l-2.3 5.1a.8.8 0 0 0 1.4.8z"/></symbol><symbol id="instagram" viewBox="0 0 329 260"><rect width="205.7" height="204.37" x="62.4" y="18.3" fill="#22639f" rx="98.9" ry="98.9"/><rect width="107.1" height="106.39" x="112.7" y="67.3" fill="none" stroke="#fff" stroke-miterlimit="10" stroke-width="9.76" rx="21.6" ry="21.6"/><ellipse cx="166.3" cy="120.5" fill="none" stroke="#fff" stroke-miterlimit="10" stroke-width="6.34" rx="19.6" ry="19.4"/><ellipse cx="193.9" cy="90.9" fill="#fff" rx="7.3" ry="7.2"/></symbol><symbol id="sell" viewBox="0 0 329 260"><circle cx="170.1" cy="130" r="103.3" fill="#23629e"/><rect width="78.6" height="53.44" x="130.8" y="72" fill="none" stroke="#fff" stroke-miterlimit="10" stroke-width="6" rx="5.6" ry="5.6"/><rect width="32.6" height="4.93" x="153.4" y="85.5" fill="none" stroke="#fff" stroke-miterlimit="10" stroke-width="2" rx="2.5" ry="2.5"/><path fill="none" stroke="#fff" stroke-miterlimit="10" stroke-width="6" d="M108.3 150.4c15.4-8.9 35.1-19.8 52.5-9.1 10.4 6.5 23 14.5 36 14.5 4.4 0 11.2 5 9.2 7.1s-2.4 6.4-14.9 6.4-30.4-2.7-30.4-2.7"/><path fill="none" stroke="#fff" stroke-miterlimit="10" stroke-width="6" d="M123.7 186.1s10.8-8.6 15.1-7.1 35 19 41.1 19 56-32.5 62.8-39.2c3.3-3.3 5.3-8.4 3.8-12.9a4.7 4.7 0 0 0-1.6-2.5c-1.4-.9-3.3-.3-4.9.4-9 3.8-16.8 9.8-24.8 15.2h-.1l-4.2 2.9m-31.8-10.4s26.5-14.8 30.8-14.8 6.9 4.2 4.3 6.9-16.6 12.2-16.6 12.2"/><path fill="none" stroke="#fff" stroke-miterlimit="10" stroke-width="6" d="M198.7 155.3s25-16.3 29.3-16.3 6.9 4.2 4.3 6.9-20.6 15.5-20.6 15.5"/></symbol><symbol id="twitter" viewBox="0 0 329 260"><rect width="205.7" height="204.37" x="58.1" y="18.3" fill="#22639f" rx="99.8" ry="99.8"/><path fill="#fff" d="M164.9 96c-3.3 3.7-14.2-.2-17.7-1.3-12.5-4-22.3-13.3-31.8-22.3a22.1 22.1 0 0 0-3.1 17.3 21.8 21.8 0 0 0 10.8 14 12.2 12.2 0 0 1-11.4-3.9c-2.4 5.4.1 11.9 4.3 16a31.5 31.5 0 0 0 7.4 5.1c2.4 1.2 5.5 1.5 7.5 3.5-1.7 1.5-4.9 2.6-7 1.7s-3-2.1-4.4-1.5c1.3 4.7 3.7 9.4 7.8 12.2a29.2 29.2 0 0 0 7.2 3.2c2.4.8 5 1 7.3 1.9-.9 5.6-13.6 7.5-18.1 8.4s-10.7 1-16.3 1c.7 0 5.8 4.8 7.1 5.4a38.3 38.3 0 0 0 10 2.9c20.6 3.9 41.5 4.8 59.2-8.2a65.3 65.3 0 0 0 21.4-27.6c3.3-8 7-18.3 7-27V90s8.2-4.1 9.6-7l1.4-3 1-.9-14 4.2c1.4-1 2.7-2.1 4-3.2a24.4 24.4 0 0 0 2.9-2.7 7.6 7.6 0 0 0 1.9-2.1 8.9 8.9 0 0 0 1.5-2.9 20.8 20.8 0 0 0 0-2.5 4.4 4.4 0 0 0-2.1.7l-3.6 1.4-7.6 2.9a4.9 4.9 0 0 1-1.6.5c-1 0-4.1-3.9-5.1-4.5a21.6 21.6 0 0 0-9.3-2.6c-7.9-.7-16.9.8-21.6 7.2-3.3 4.4-3.7 10.4-3.6 15.9a8.7 8.7 0 0 1-.4 3.6 2.1 2.1 0 0 1-.6 1z"/></symbol></svg>