<svg id="Layer_1" data-name="Layer 1" xmlns="http://www.w3.org/2000/svg" width="8.5in" height="3.1in" viewBox="0 0 612 222"><title>logo</title><path d="M73.2,145.5V49.2h42.9a21.5,21.5,0,0,1,21.4,21.3v53.7a21.5,21.5,0,0,1-21.4,21.3Zm21.4-10.7h10.8a10.5,10.5,0,0,0,7.6-3.2,10.1,10.1,0,0,0,3.1-7.4V70.5a10.8,10.8,0,0,0-10.7-10.6H94.6Z" fill="#7bb556"/><path d="M158.9,59.9V49.2h21.4V59.9Zm0,85.6v-75h21.4v75Z" fill="#7bb556"/><path d="M266,70.5v85.8a21.9,21.9,0,0,1-21.4,21.4H223.1c-12.6,0-19.7-7.2-21.4-21.4h10.8c.5,7.1,4,10.6,10.6,10.6h10.8a10.8,10.8,0,0,0,10.7-10.6V134.8c-.8,7.2-4.4,10.7-10.7,10.7H223.1a20.7,20.7,0,0,1-15.1-6.3,20.5,20.5,0,0,1-6.3-15V92a21.7,21.7,0,0,1,21.4-21.5ZM244.6,81.3H233.9a10.3,10.3,0,0,0-7.6,3.1,10.7,10.7,0,0,0-3.2,7.6v32.2a10.9,10.9,0,0,0,10.8,10.6,10.5,10.5,0,0,0,7.6-3.2,10.1,10.1,0,0,0,3.1-7.4Z" fill="#7bb556"/><path d="M287.4,59.9V49.2h21.4V59.9Zm0,85.6v-75h21.4v75Z" fill="#7bb556"/><path d="M330.2,145.5v-75a20.5,20.5,0,0,1,6.3-15,20.7,20.7,0,0,1,15.1-6.3h21.5a21.5,21.5,0,0,1,21.4,21.3v75H373.1V102.7H351.6v42.8ZM351.6,92h21.5V70.5a10.8,10.8,0,0,0-21.5,0Z" fill="#7bb556"/><path d="M437.3,145.5H415.9v-75h21.4V92c.8-7.1,3-12.5,6.6-16.1s8.5-5.4,14.8-5.4h10.7V92H448a10.5,10.5,0,0,0-7.6,3.2,10.2,10.2,0,0,0-3.1,7.5Z" fill="#7bb556"/><path d="M490.9,49.2h21.4V70.5H523V81.3H512.3v42.9a9.6,9.6,0,0,0,3.4,7.9,10.4,10.4,0,0,0,6.3,2.7h1v10.7H512.3a21.3,21.3,0,0,1-21.4-21.3V81.3H480.1V70.5h10.8Z" fill="#7bb556"/><polygon points="158.7 59.7 169.7 68.3 180.2 59.7 158.7 59.7" fill="#7bb556"/><polygon points="158.7 49.2 169.7 38.9 180.2 49.2 158.7 49.2" fill="#7bb556"/><polygon points="287.4 59.7 298.3 68.3 308.9 59.7 287.4 59.7" fill="#7bb556"/><polygon points="287.4 49.2 298.3 38.9 308.9 49.2 287.4 49.2" fill="#7bb556"/><rect x="281.8" y="157.1" width="290.4" height="2.05" fill="#7bb556"/><rect x="76.1" y="157.6" width="111.2" height="1.53" fill="#7bb556"/></svg>