<svg xmlns="http://www.w3.org/2000/svg"><symbol id="mastercard" viewBox="0 0 345.8 273.2"><circle cx="120.4" cy="142.3" r="88.6" fill="#f9a253" fill-opacity=".79"/><circle cx="225.4" cy="144.2" r="88.6" fill="#be1e2d" fill-opacity=".82"/><path fill="#fff" d="M80.8 151.4c1.5-5.5 3.5-13.1 4.8-17.5h-.3c-2.8 7.2-8.4 21.4-11.6 29h-7.1c1.1-7.9 3-22.3 4-29.1h-.3c-1 4.3-3 11.7-4.6 17.9l-2.8 11.2h-7.8l9.5-36h12.3c-1 7.9-2 16.1-2.8 21h.2c2.1-5.2 5.7-13.7 8.9-21h12.3l-9.5 36h-8.2zm32.7 4.1c-.6 2.1-1.7 6.4-1.9 7.4h-8.2c.1-.5.2-1.3.4-2.2a8.2 8.2 0 0 1-6.3 2.7c-5.4 0-6.6-4-5.3-9s5.7-8.4 14.2-9.2l1.4-.2.8-3.1c.5-1.7.3-2.8-1.3-2.8s-2.1 1.1-2.6 2.8l-.3 1.1h-8.1l.2-.7c1.2-4.4 3.2-8.2 11.4-8.2s10.5 2.6 9 8.2zm-6.9-5.6l-.9.2c-2.9.5-4.2 1.3-5 4.1s-.4 3.4 1.5 3.4 2.7-1.5 3.4-4.1zm18.8 4l-.4 1.4c-.5 1.6-.3 3 1.4 3s2-.7 2.4-2-.1-3.8-2.9-5.9c-4.8-3.4-5.9-5.7-4.9-9.8s4.2-6.5 10-6.5c7.7 0 9.9 3.8 8.8 8.2l-.3 1.1h-7.7l.3-1.4c.5-2 .3-2.9-1.1-2.9s-1.7.7-2 1.9-.2 2.3 2.4 4.2c5.5 4 6.8 6.5 5.7 10.9s-4 7.3-11 7.3c-8.8 0-10.2-4.3-8.8-9v-.5zm18.5-19.4h3.5l1.9-6.4h8.3l-1.8 6.4h4l-1.5 5.7h-4l-4.3 15.4c-.3 1.3-.1 2.1 1.8 2.1h1.9l-1.4 5.2a21.7 21.7 0 0 1-4.8.5c-5.2 0-7.6-1.5-6.3-6.5l4.6-16.6h-3.4zm22.8 16l-1.1 4.4c-.5 1.9-.2 3.1 1.5 3.1s2.4-1.4 2.8-2.9l.3-1.2h8.3l-.2.8c-1.2 4.8-3.5 8.7-11.9 8.7s-10.2-5.1-8.8-10.5l2.5-9.5c1.4-5 3.8-9.3 12.2-9.3s10.3 4.5 8.9 10.1l-1.7 6.3zm5.9-4.9l.8-3.2c.5-1.8.4-3.2-1.5-3.2s-2.5.9-3 3.2l-.9 3.2zm12.9-1.4c1.3-4.9 2.1-7.8 2.5-9.7h8a25 25 0 0 1-.8 4c1.8-3.3 5-4.4 8.2-4.4l-2.2 8c-5.2-.1-7.2 1.6-8.4 6.3l-3.8 14.5h-8.4zm38.9 7.3l-.4 1.6c-1.5 5.1-3 10.3-12.8 10.3-7.9 0-10.8-3.5-9-10.5l4.3-16.2c1.9-6.9 4.8-10.3 12.4-10.3 10.5 0 10.5 6 9.2 10.2l-.4 1.4h-8.4l.7-2.6c.6-2.3.2-3.4-1.6-3.4s-2.3 1-3 3.6l-4.9 18.5c-.6 2.4-.6 3.8 1.4 3.8s2.5-1.1 3.2-3.8l.7-2.6zm23.9 4c-.5 2.1-1.6 6.4-1.8 7.4h-8.2c.1-.5.2-1.3.4-2.2a8.2 8.2 0 0 1-6.4 2.7c-5.3 0-6.5-4-5.2-9s5.6-8.4 14.2-9.2l1.4-.2.8-3.1c.5-1.7.3-2.8-1.3-2.8s-2.1 1.1-2.6 2.8l-.3 1.1h-8.1v-.7c1.2-4.4 3.3-8.2 11.5-8.2s10.5 2.6 9 8.2zm-6.8-5.6l-1 .2c-2.8.5-4.1 1.3-4.9 4.1s-.5 3.4 1.4 3.4 2.8-1.5 3.5-4.1zm14.8-5.7c1.3-4.9 2.1-7.8 2.4-9.7h8.1c-.1.8-.4 2.3-.8 4 1.8-3.3 5-4.4 8.2-4.4l-2.2 8c-5.2-.1-7.2 1.6-8.5 6.3l-3.7 14.5h-8.4zm44.9-18.8l-7.8 29.6c-1 4-1.6 6.3-1.9 7.9h-8.2a7.8 7.8 0 0 1 .3-2.2 7.8 7.8 0 0 1-6.4 2.7c-5.7 0-6.6-4.2-5.3-9.3l3-11.2c1.2-4.5 3.3-8.8 9.6-8.8 2.4 0 4.6.7 5.4 2l2.8-10.7zM283.4 143l-3 11.3c-.5 1.6-.5 3.3 1.5 3.3s2.8-1.3 3.5-3.8l2.7-10.3c.7-2.4.5-3.8-1.6-3.8s-2.6 1.2-3.1 3.3z"/></symbol><symbol id="visa" viewBox="0 0 345.8 273.2"><rect width="223" height="181.12" x="58.6" y="52.7" fill="#23629e" rx="12.2" ry="12.2"/><path fill="#fff" d="M86.1 185.4l6.1-92h17.9l-4 33c-1.5 12.2-3.6 29-5.2 40.4h.7c3.1-11.3 8.2-28.1 11.9-40.2l10.1-33.2h18.1l-32.8 92zm79.4-92l-19.6 92h-17.3l19.5-92zm11.8 65.5l-.9 4.4c-1.1 6.3-.3 9.7 4 9.7s5.6-2.9 6.8-9.1.2-12.2-7.6-21.1c-9.4-10.7-13.1-16.7-10.4-30.8s10-20 22.8-20c20.1 0 21.5 14 19.3 25.7l-.4 2h-16.6l.7-3.4c1.1-6.1 1-10.3-3.3-10.3-2.8 0-4.7 1.7-5.5 6.5-1.2 6.4-.1 9.4 6.2 16.8 12.3 14.3 15 21.6 12.1 35.8s-10.7 21.7-25.6 21.7c-17.3 0-22.6-10.1-19.3-25.7l.4-2.2zm53.7 4l-6.9 22.5h-18.3l31.8-92h26.8l-6.9 92H240l2-22.5zm12.7-15.2c1.1-10.9 3-30.2 3.7-38.8h-.7c-1.7 6.9-7.4 26.9-11 38.8z"/><path fill="#7ab554" d="M81.4 88.9l28.9 4.4-6.3 50s-3.9-34.1-8.2-38.4-14.4-16-14.4-16z"/></symbol></svg>