<svg id="Layer_1" data-name="Layer 1" xmlns="http://www.w3.org/2000/svg" width="4.6in" height="3.6in" viewBox="0 0 329 260"><title>Sell</title><circle cx="170.1" cy="130" r="103.3" fill="#23629e"/><rect x="130.8" y="76.6" width="78.6" height="53.44" rx="5.6" ry="5.6" fill="none" stroke="#fff" stroke-miterlimit="10" stroke-width="3"/><rect x="153.4" y="85.5" width="32.6" height="4.93" rx="2.5" ry="2.5" fill="none" stroke="#fff" stroke-miterlimit="10" stroke-width="2"/><path d="M108.3,150.4c15.4-8.9,35.1-19.8,52.5-9.1,10.4,6.5,23,14.5,36,14.5,4.4,0,11.2,5,9.2,7.1s-2.4,6.4-14.9,6.4-30.4-2.7-30.4-2.7" fill="none" stroke="#fff" stroke-miterlimit="10" stroke-width="3"/><path d="M123.7,186.1s10.8-8.6,15.1-7.1,35,19,41.1,19,56-32.5,62.8-39.2c3.3-3.3,5.3-8.4,3.8-12.9a4.7,4.7,0,0,0-1.6-2.5c-1.4-.9-3.3-.3-4.9.4-9,3.8-16.8,9.8-24.8,15.2h-.1l-4.2,2.9" fill="none" stroke="#fff" stroke-miterlimit="10" stroke-width="3"/><path d="M179.1,151.5s26.5-14.8,30.8-14.8,6.9,4.2,4.3,6.9-16.6,12.2-16.6,12.2" fill="none" stroke="#fff" stroke-miterlimit="10" stroke-width="3"/><path d="M198.7,155.3S223.7,139,228,139s6.9,4.2,4.3,6.9-20.6,15.5-20.6,15.5" fill="none" stroke="#fff" stroke-miterlimit="10" stroke-width="3"/></svg>